<svg xmlns="http://www.w3.org/2000/svg" xmlns:xlink="http://www.w3.org/1999/xlink" width="500" zoomAndPan="magnify" viewBox="0 0 375 374.999991" height="500" preserveAspectRatio="xMidYMid meet" version="1.0"><defs><g/></defs><rect x="-37.5" width="450" fill="#ffffff" y="-37.499999" height="449.999989" fill-opacity="1"/><rect x="-37.5" width="450" fill="#ffffff" y="-37.499999" height="449.999989" fill-opacity="1"/><g fill="#94acc4" fill-opacity="1"><g transform="translate(64.900099, 166.676252)"><g><path d="M 105.839844 -132.539062 L 0 -132.539062 L 53.015625 5.492188 Z M 53.015625 -54.152344 L 32.566406 -110.574219 L 73.273438 -110.574219 Z M 53.015625 -54.152344 "/></g></g></g><g fill="#94acc4" fill-opacity="1"><g transform="translate(162.591297, 166.676252)"><g><path d="M 60.019531 -35.976562 C 87.097656 -35.976562 109.25 -58.128906 109.25 -85.203125 C 109.25 -112.277344 87.097656 -134.429688 60.019531 -134.429688 C 32.945312 -134.429688 10.792969 -112.277344 10.792969 -85.203125 C 10.792969 -58.128906 32.945312 -35.976562 60.019531 -35.976562 Z M 60.019531 -112.46875 C 75.167969 -112.46875 87.285156 -100.351562 87.285156 -85.203125 C 87.285156 -70.054688 75.167969 -57.9375 60.019531 -57.9375 C 44.875 -57.9375 32.757812 -70.054688 32.757812 -85.203125 C 32.757812 -100.351562 44.875 -112.46875 60.019531 -112.46875 Z M 103.191406 0 L 103.191406 -21.964844 L 15.714844 -21.964844 L 15.714844 0 Z M 103.191406 0 "/></g></g></g><g fill="#94acc4" fill-opacity="1"><g transform="translate(62.36181, 317.726716)"><g><path d="M 37.109375 -132.539062 L 14.957031 -132.539062 L 14.957031 0 L 37.109375 0 C 70.054688 0 114.550781 -9.65625 114.550781 -66.269531 C 114.550781 -125.152344 69.296875 -132.539062 37.109375 -132.539062 Z M 37.109375 -21.585938 L 37.109375 -110.953125 C 37.109375 -110.953125 92.207031 -119.285156 92.207031 -66.269531 C 92.207031 -14.011719 37.109375 -21.585938 37.109375 -21.585938 Z M 37.109375 -21.585938 "/></g></g></g><g fill="#94acc4" fill-opacity="1"><g transform="translate(180.121506, 317.726716)"><g><path d="M 76.113281 -15.335938 L 81.984375 0 L 105.839844 0 L 52.824219 -136.324219 L 0 0 L 23.855469 0 L 29.535156 -15.335938 Z M 36.730469 -34.460938 L 52.824219 -80.46875 L 68.917969 -34.460938 Z M 36.730469 -34.460938 "/></g></g></g><g fill="#94acc4" fill-opacity="1"><g transform="translate(306.225849, 171.093424)"><g><path d="M 18.078125 0.890625 C 20.003906 0.890625 21.484375 1.347656 22.515625 2.265625 C 23.546875 3.179688 24.0625 4.554688 24.0625 6.390625 C 24.0625 8.222656 23.546875 9.597656 22.515625 10.515625 C 21.484375 11.429688 20.003906 11.890625 18.078125 11.890625 L 17.15625 11.890625 L 17.15625 8.359375 L 18.3125 8.359375 C 19.175781 8.359375 19.78125 8.191406 20.125 7.859375 C 20.476562 7.535156 20.65625 7.078125 20.65625 6.484375 C 20.65625 5.898438 20.476562 5.441406 20.125 5.109375 C 19.78125 4.785156 19.175781 4.625 18.3125 4.625 C 17.5 4.625 16.78125 4.800781 16.15625 5.15625 C 15.53125 5.519531 14.941406 5.972656 14.390625 6.515625 C 13.835938 7.066406 13.28125 7.648438 12.71875 8.265625 C 12.164062 8.890625 11.5625 9.472656 10.90625 10.015625 C 10.25 10.566406 9.5 11.019531 8.65625 11.375 C 7.820312 11.738281 6.835938 11.921875 5.703125 11.921875 C 3.785156 11.921875 2.3125 11.453125 1.28125 10.515625 C 0.25 9.578125 -0.265625 8.191406 -0.265625 6.359375 C -0.265625 4.523438 0.25 3.132812 1.28125 2.1875 C 2.3125 1.25 3.785156 0.78125 5.703125 0.78125 L 7.34375 0.78125 L 7.34375 4.3125 L 5.46875 4.3125 C 4.613281 4.3125 4.015625 4.488281 3.671875 4.84375 C 3.328125 5.195312 3.15625 5.664062 3.15625 6.25 C 3.15625 6.84375 3.328125 7.3125 3.671875 7.65625 C 4.015625 8.007812 4.613281 8.1875 5.46875 8.1875 C 6.28125 8.1875 7 8.003906 7.625 7.640625 C 8.25 7.285156 8.835938 6.832031 9.390625 6.28125 C 9.953125 5.738281 10.507812 5.15625 11.0625 4.53125 C 11.613281 3.914062 12.21875 3.332031 12.875 2.78125 C 13.53125 2.238281 14.273438 1.785156 15.109375 1.421875 C 15.953125 1.066406 16.941406 0.890625 18.078125 0.890625 Z M 18.078125 0.890625 "/></g></g></g><g fill="#94acc4" fill-opacity="1"><g transform="translate(306.225849, 185.058804)"><g><path d="M 23.796875 0.34375 L 23.796875 11.890625 L 20.390625 11.890625 L 20.390625 7.984375 L 0 7.984375 L 0 4.25 L 20.390625 4.25 L 20.390625 0.34375 Z M 23.796875 0.34375 "/></g></g></g><g fill="#94acc4" fill-opacity="1"><g transform="translate(306.225849, 198.548495)"><g><path d="M 0 13.453125 L 0 9.6875 L 4.3125 9.046875 L 4.3125 4.453125 L 0 3.8125 L 0 0.375 L 23.796875 4.1875 L 23.796875 9.65625 Z M 7.546875 4.921875 L 7.546875 8.53125 L 19.578125 6.734375 Z M 7.546875 4.921875 "/></g></g></g><g fill="#94acc4" fill-opacity="1"><g transform="translate(306.225849, 213.635119)"><g><path d="M 23.796875 0.34375 L 23.796875 11.890625 L 20.390625 11.890625 L 20.390625 7.984375 L 0 7.984375 L 0 4.25 L 20.390625 4.25 L 20.390625 0.34375 Z M 23.796875 0.34375 "/></g></g></g><g fill="#94acc4" fill-opacity="1"><g transform="translate(306.225849, 227.124808)"><g><path d="M 18.078125 0.890625 C 20.003906 0.890625 21.484375 1.347656 22.515625 2.265625 C 23.546875 3.179688 24.0625 4.554688 24.0625 6.390625 C 24.0625 8.222656 23.546875 9.597656 22.515625 10.515625 C 21.484375 11.429688 20.003906 11.890625 18.078125 11.890625 L 17.15625 11.890625 L 17.15625 8.359375 L 18.3125 8.359375 C 19.175781 8.359375 19.78125 8.191406 20.125 7.859375 C 20.476562 7.535156 20.65625 7.078125 20.65625 6.484375 C 20.65625 5.898438 20.476562 5.441406 20.125 5.109375 C 19.78125 4.785156 19.175781 4.625 18.3125 4.625 C 17.5 4.625 16.78125 4.800781 16.15625 5.15625 C 15.53125 5.519531 14.941406 5.972656 14.390625 6.515625 C 13.835938 7.066406 13.28125 7.648438 12.71875 8.265625 C 12.164062 8.890625 11.5625 9.472656 10.90625 10.015625 C 10.25 10.566406 9.5 11.019531 8.65625 11.375 C 7.820312 11.738281 6.835938 11.921875 5.703125 11.921875 C 3.785156 11.921875 2.3125 11.453125 1.28125 10.515625 C 0.25 9.578125 -0.265625 8.191406 -0.265625 6.359375 C -0.265625 4.523438 0.25 3.132812 1.28125 2.1875 C 2.3125 1.25 3.785156 0.78125 5.703125 0.78125 L 7.34375 0.78125 L 7.34375 4.3125 L 5.46875 4.3125 C 4.613281 4.3125 4.015625 4.488281 3.671875 4.84375 C 3.328125 5.195312 3.15625 5.664062 3.15625 6.25 C 3.15625 6.84375 3.328125 7.3125 3.671875 7.65625 C 4.015625 8.007812 4.613281 8.1875 5.46875 8.1875 C 6.28125 8.1875 7 8.003906 7.625 7.640625 C 8.25 7.285156 8.835938 6.832031 9.390625 6.28125 C 9.953125 5.738281 10.507812 5.15625 11.0625 4.53125 C 11.613281 3.914062 12.21875 3.332031 12.875 2.78125 C 13.53125 2.238281 14.273438 1.785156 15.109375 1.421875 C 15.953125 1.066406 16.941406 0.890625 18.078125 0.890625 Z M 18.078125 0.890625 "/></g></g></g><g fill="#94acc4" fill-opacity="1"><g transform="translate(306.225849, 241.090186)"><g/></g></g><g fill="#94acc4" fill-opacity="1"><g transform="translate(306.225849, 247.614497)"><g><path d="M 13.25 6.96875 L 13.25 12.203125 L 5.703125 12.203125 C 3.785156 12.203125 2.3125 11.726562 1.28125 10.78125 C 0.25 9.84375 -0.265625 8.457031 -0.265625 6.625 C -0.265625 4.789062 0.25 3.398438 1.28125 2.453125 C 2.3125 1.515625 3.785156 1.046875 5.703125 1.046875 L 18.078125 1.046875 C 20.003906 1.046875 21.484375 1.515625 22.515625 2.453125 C 23.546875 3.398438 24.0625 4.789062 24.0625 6.625 C 24.0625 8.457031 23.546875 9.84375 22.515625 10.78125 C 21.484375 11.726562 20.003906 12.203125 18.078125 12.203125 L 15.765625 12.203125 L 15.765625 8.671875 L 18.3125 8.671875 C 19.175781 8.671875 19.78125 8.492188 20.125 8.140625 C 20.476562 7.785156 20.65625 7.316406 20.65625 6.734375 C 20.65625 6.140625 20.476562 5.664062 20.125 5.3125 C 19.78125 4.96875 19.175781 4.796875 18.3125 4.796875 L 5.46875 4.796875 C 4.613281 4.796875 4.015625 4.96875 3.671875 5.3125 C 3.328125 5.664062 3.15625 6.140625 3.15625 6.734375 C 3.15625 7.316406 3.328125 7.785156 3.671875 8.140625 C 4.015625 8.492188 4.613281 8.671875 5.46875 8.671875 L 9.859375 8.671875 L 9.859375 6.96875 Z M 13.25 6.96875 "/></g></g></g><g fill="#94acc4" fill-opacity="1"><g transform="translate(306.225849, 262.123515)"><g><path d="M 0 9.171875 C 0.15625 9.128906 0.300781 9.082031 0.4375 9.03125 C 0.570312 8.988281 0.738281 8.953125 0.9375 8.921875 C 1.144531 8.890625 1.40625 8.867188 1.71875 8.859375 C 2.039062 8.847656 2.441406 8.84375 2.921875 8.84375 L 6.65625 8.84375 C 7.769531 8.84375 8.550781 8.648438 9 8.265625 C 9.457031 7.878906 9.6875 7.253906 9.6875 6.390625 L 9.6875 5.09375 L 0 5.09375 L 0 1.359375 L 23.796875 1.359375 L 23.796875 7 C 23.796875 8.945312 23.34375 10.359375 22.4375 11.234375 C 21.53125 12.109375 20.15625 12.546875 18.3125 12.546875 L 16.453125 12.546875 C 14.003906 12.546875 12.394531 11.726562 11.625 10.09375 C 11.238281 11.039062 10.609375 11.691406 9.734375 12.046875 C 8.859375 12.398438 7.800781 12.578125 6.5625 12.578125 L 2.890625 12.578125 C 2.296875 12.578125 1.78125 12.597656 1.34375 12.640625 C 0.90625 12.679688 0.457031 12.796875 0 12.984375 Z M 20.390625 5.09375 L 13.078125 5.09375 L 13.078125 6.5625 C 13.078125 7.257812 13.257812 7.804688 13.625 8.203125 C 13.988281 8.597656 14.644531 8.796875 15.59375 8.796875 L 17.9375 8.796875 C 18.800781 8.796875 19.425781 8.644531 19.8125 8.34375 C 20.195312 8.039062 20.390625 7.5625 20.390625 6.90625 Z M 20.390625 5.09375 "/></g></g></g><g fill="#94acc4" fill-opacity="1"><g transform="translate(306.225849, 277.040257)"><g><path d="M 5.46875 4.796875 C 4.613281 4.796875 4.007812 4.96875 3.65625 5.3125 C 3.300781 5.664062 3.125 6.140625 3.125 6.734375 C 3.125 7.316406 3.300781 7.785156 3.65625 8.140625 C 4.007812 8.492188 4.613281 8.671875 5.46875 8.671875 L 18.3125 8.671875 C 19.175781 8.671875 19.78125 8.492188 20.125 8.140625 C 20.476562 7.785156 20.65625 7.316406 20.65625 6.734375 C 20.65625 6.140625 20.476562 5.664062 20.125 5.3125 C 19.78125 4.96875 19.175781 4.796875 18.3125 4.796875 Z M 18.078125 1.046875 C 20.003906 1.046875 21.484375 1.53125 22.515625 2.5 C 23.546875 3.476562 24.0625 4.890625 24.0625 6.734375 C 24.0625 8.566406 23.546875 9.96875 22.515625 10.9375 C 21.484375 11.914062 20.003906 12.40625 18.078125 12.40625 L 5.703125 12.40625 C 3.785156 12.40625 2.3125 11.914062 1.28125 10.9375 C 0.25 9.96875 -0.265625 8.566406 -0.265625 6.734375 C -0.265625 4.890625 0.25 3.476562 1.28125 2.5 C 2.3125 1.53125 3.785156 1.046875 5.703125 1.046875 Z M 18.078125 1.046875 "/></g></g></g><g fill="#94acc4" fill-opacity="1"><g transform="translate(306.225849, 291.753151)"><g><path d="M 23.796875 4.921875 L 5.4375 4.921875 C 4.570312 4.921875 3.96875 5.097656 3.625 5.453125 C 3.289062 5.804688 3.125 6.273438 3.125 6.859375 C 3.125 7.453125 3.289062 7.921875 3.625 8.265625 C 3.96875 8.617188 4.570312 8.796875 5.4375 8.796875 L 23.796875 8.796875 L 23.796875 12.34375 L 5.671875 12.34375 C 3.742188 12.34375 2.265625 11.867188 1.234375 10.921875 C 0.203125 9.984375 -0.3125 8.597656 -0.3125 6.765625 C -0.3125 4.929688 0.203125 3.539062 1.234375 2.59375 C 2.265625 1.65625 3.742188 1.1875 5.671875 1.1875 L 23.796875 1.1875 Z M 23.796875 4.921875 "/></g></g></g><g fill="#94acc4" fill-opacity="1"><g transform="translate(306.225849, 306.533995)"><g><path d="M 23.796875 6.859375 C 23.796875 8.742188 23.296875 10.144531 22.296875 11.0625 C 21.296875 11.976562 19.832031 12.4375 17.90625 12.4375 L 14.8125 12.4375 C 12.882812 12.4375 11.421875 11.976562 10.421875 11.0625 C 9.429688 10.144531 8.9375 8.742188 8.9375 6.859375 L 8.9375 5.09375 L 0 5.09375 L 0 1.359375 L 23.796875 1.359375 Z M 20.390625 5.09375 L 12.34375 5.09375 L 12.34375 6.859375 C 12.34375 7.453125 12.5 7.90625 12.8125 8.21875 C 13.125 8.539062 13.710938 8.703125 14.578125 8.703125 L 18.140625 8.703125 C 19.003906 8.703125 19.59375 8.539062 19.90625 8.21875 C 20.226562 7.90625 20.390625 7.453125 20.390625 6.859375 Z M 20.390625 5.09375 "/></g></g></g></svg>