<svg width="122" height="121" viewBox="0 0 122 121" fill="none" xmlns="http://www.w3.org/2000/svg">
<g clip-path="url(#clip0_94_1672)">
<path d="M34.8158 3.59392C33.6815 4.02998 32.3292 3.89888 31.3224 4.5363C30.5539 4.88181 30.3322 5.86836 30.8791 6.50939C31.4629 6.986 32.3589 6.84185 33.0535 6.82519C33.5838 6.77158 33.8221 6.47968 33.9329 5.9864C34.5 5.76838 35.0672 5.55035 35.5069 5.13096C36.3123 4.62102 35.7857 3.12093 34.8158 3.59392Z" fill="#C9C9C9"/>
<path d="M26.0592 11.8174C24.888 12.4179 23.6798 13.1828 22.636 13.9846C21.5922 14.7864 20.3102 15.8802 20.0516 17.0312C19.9038 17.6889 20.6521 18.2024 21.0918 17.783C22.0986 17.1456 22.5585 15.8671 23.4379 15.0284C24.3541 14.0252 25.361 13.3877 26.5691 12.6228C27.0088 12.2034 26.4619 11.5624 26.0592 11.8174Z" fill="#C9C9C9"/>
<path d="M18.7887 25.7289C18.7554 24.3397 18.9234 22.8229 19.2559 21.3431C19.3667 20.8498 18.5446 20.6651 18.4338 21.1584C17.9905 23.1315 16.1174 26.856 17.795 28.6147C18.0499 29.0174 18.654 28.635 18.7279 28.3061C18.9126 27.484 18.7685 26.588 18.7887 25.7289Z" fill="#C9C9C9"/>
<path d="M26.5928 34.0459C23.8882 33.7837 21.4754 33.7598 19.3046 31.8903C19.0126 31.652 18.7743 31.9439 19.0662 32.1822C21.1263 34.545 23.7368 35.9951 26.8645 35.1433C27.596 34.9622 27.123 33.9923 26.5928 34.0459Z" fill="#C9C9C9"/>
<path d="M40.3521 28.1553C38.9259 28.3531 37.7177 29.118 36.3821 29.6815C34.845 30.3725 33.4724 31.1005 32.0629 31.9929C31.6601 32.2479 32.0057 33.0164 32.5728 32.7984C33.781 32.0334 35.0797 31.6343 36.4154 31.0708C37.7511 30.5073 39.3786 30.182 40.5868 29.4171C41.1909 29.0347 41.0837 27.9742 40.3521 28.1553Z" fill="#C9C9C9"/>
<path d="M54.028 18.7918C50.8098 19.2779 47.3866 21.4451 44.7319 23.2668C44.2923 23.6862 44.6747 24.2903 45.2419 24.0723C46.8158 23.2168 48.5542 22.3983 50.2557 21.7442C51.5914 21.1807 53.0545 20.8185 54.2627 20.0536C54.9037 19.5068 54.5582 18.7382 54.028 18.7918Z" fill="#C9C9C9"/>
<path d="M70.0284 15.9956C67.1057 15.1663 63.8875 15.6523 61.0351 16.0478C60.5049 16.1014 60.5215 16.796 61.0148 16.9069C63.9947 16.7127 66.8638 17.0119 69.696 17.4754C70.555 17.4957 70.8505 16.1803 70.0284 15.9956Z" fill="#C9C9C9"/>
<path d="M79.826 23.8966C79.2255 22.7254 78.2962 21.4802 77.4943 20.4365C76.82 19.5941 75.6118 20.359 76.0848 21.3289C76.7225 22.3357 77.3227 23.5069 77.9232 24.6782C78.5239 25.8495 79.0133 27.5139 79.9796 28.5946C80.399 29.0343 81.1675 28.6888 81.1508 27.9942C81.4463 26.6788 80.5909 25.1048 79.826 23.8966Z" fill="#C9C9C9"/>
<path d="M80.9546 33.4774C81.1024 32.8197 79.9517 32.5612 79.8039 33.2189C79.2701 34.8262 78.6088 36.2321 77.9103 37.8024C77.249 39.2084 76.0944 40.5035 75.725 42.1477C75.5403 42.9699 76.6174 43.5573 77.1312 42.8091C79.239 40.3464 80.4541 36.474 80.9546 33.4774Z" fill="#C9C9C9"/>
<path d="M70.1547 48.496C69.0737 49.4622 67.9933 50.4285 66.9123 51.3947C65.9963 52.398 64.5868 53.2904 64.1266 54.5688C63.9788 55.2265 64.5996 55.5387 65.1298 55.4851C66.3916 55.2504 67.2173 53.8814 67.9322 53.0057C69.0498 51.875 70.04 50.5429 71.1576 49.4122C71.6715 48.664 70.7957 47.9491 70.1547 48.496Z" fill="#C9C9C9"/>
<path d="M59.2367 58.6519C57.4614 59.6348 56.0149 60.6916 54.6959 61.9498C53.3769 63.208 51.5812 65.05 51.5038 66.9325C51.4835 67.7916 52.2687 68.1407 52.9097 67.5938C53.9904 66.6276 54.5242 65.0203 55.313 63.8157C56.414 61.9904 57.9713 60.4403 59.6561 59.0916C60.0219 59.001 59.6394 58.3969 59.2367 58.6519Z" fill="#C9C9C9"/>
<path d="M46.2447 72.6601C44.4694 73.643 42.9859 74.8642 41.5931 76.4513C40.2002 78.0383 38.532 80.0819 38.4176 82.1289C38.4342 82.8235 39.4208 83.0451 39.696 82.5888C41.0151 81.3304 41.4584 79.3573 42.4855 77.8608C43.5494 76.2002 45.1068 74.6498 46.7916 73.3011C47.1943 73.0461 46.8488 72.2776 46.2447 72.6601Z" fill="#C9C9C9"/>
<path d="M40.4279 97.7796C39.4246 96.8635 38.5489 96.1486 37.9484 94.9774C37.4218 93.4773 37.5363 91.4303 37.8687 89.9505C37.9796 89.457 37.1575 89.2723 37.0466 89.7658C36.0159 92.816 35.4546 98.3895 39.7665 99.1858C40.4612 99.1691 41.0117 98.2564 40.4279 97.7796Z" fill="#C9C9C9"/>
<path d="M56.5635 107.45C54.792 106.879 52.9093 106.802 51.1009 106.395C48.8356 105.714 46.8459 104.576 45.3327 102.854C45.0407 102.616 44.7655 103.072 44.893 103.273C47.7549 106.68 52.0063 110.053 56.6877 109.205C57.6204 108.896 57.3856 107.635 56.5635 107.45Z" fill="#C9C9C9"/>
<path d="M73.0518 99.4094C71.7531 99.8085 70.5449 100.573 69.0448 101.1C67.7461 101.499 66.3565 101.532 65.0044 101.401C64.1451 101.381 63.8865 102.532 64.7089 102.717C67.6316 103.546 71.635 103.409 73.9072 100.983C74.7499 100.309 73.9479 99.265 73.0518 99.4094Z" fill="#C9C9C9"/>
<path d="M82.0099 91.0582C79.3921 92.7155 76.5733 94.5003 74.5022 96.7986C73.8241 97.5102 74.8643 98.2617 75.5054 97.7149C77.8312 95.8193 81.1602 94.8399 83.1039 92.3403C83.4527 91.5553 82.8152 90.5485 82.0099 91.0582Z" fill="#C9C9C9"/>
<path d="M94.3049 93.9935C94.0333 92.8961 92.8656 91.9429 91.9899 91.228C90.9498 90.4761 89.6712 90.0164 88.3558 89.7209C87.5337 89.5362 87.2752 90.6869 88.0973 90.8716C89.2483 91.1302 90.1609 91.681 91.0366 92.3959C91.7482 93.0739 92.2212 94.0438 92.9323 94.7214C93.4792 95.3622 94.4857 94.725 94.3049 93.9935Z" fill="#C9C9C9"/>
<path d="M102.73 102.622C101.278 98.3236 100.758 93.7161 99.6719 89.3266C99.0917 87.2963 96.0915 88.3495 96.5073 90.3429C97.2484 93.9635 97.788 97.7122 99.0592 101.28C97.5424 101.112 96.0257 100.944 94.3445 100.739C93.6499 100.755 92.4989 100.497 91.8578 101.044L91.6568 101.171C91.6568 101.171 91.4924 101.134 91.4554 101.299C91.0527 101.553 91.2338 102.285 91.5626 102.359C91.6901 102.56 91.8548 102.597 92.1834 102.671C92.9689 103.02 93.8276 103.041 94.8142 103.262C96.9886 103.578 98.9987 103.857 101.099 104.501C102.049 104.887 103.002 103.72 102.73 102.622Z" fill="#C9C9C9"/>
</g>
<defs>
<clipPath id="clip0_94_1672">
<rect width="100.527" height="100.527" fill="white" transform="translate(22.9282) rotate(12.662)"/>
</clipPath>
</defs>
</svg>
