<svg width="145" height="145" viewBox="0 0 145 145" fill="none" xmlns="http://www.w3.org/2000/svg">
<g clip-path="url(#clip0_94_1693)">
<path d="M129.534 119.2C130.526 118.142 132.048 117.58 132.799 116.371C133.446 115.6 133.171 114.425 132.25 114.02C131.375 113.811 130.487 114.432 129.748 114.811C129.206 115.144 129.102 115.582 129.239 116.169C128.743 116.699 128.247 117.228 127.992 117.907C127.391 118.874 128.737 120.213 129.534 119.2Z" fill="#C9C9C9"/>
<path d="M134.672 105.809C135.619 104.555 136.52 103.105 137.225 101.7C137.93 100.296 138.74 98.4535 138.42 97.0819C138.236 96.2981 137.165 96.135 136.911 96.8144C136.16 98.0229 136.33 99.6362 135.821 100.995C135.357 102.55 134.606 103.758 133.705 105.208C133.451 105.888 134.372 106.292 134.672 105.809Z" fill="#C9C9C9"/>
<path d="M135.256 87.076C136.014 88.552 136.622 90.2697 137.034 92.0332C137.171 92.6211 138.151 92.3923 138.013 91.8044C137.464 89.4531 137.542 84.4759 134.824 83.4575C134.341 83.1571 133.89 83.8822 133.982 84.2741C134.211 85.2538 134.831 86.142 135.256 87.076Z" fill="#C9C9C9"/>
<path d="M122.544 82.1925C125.588 81.0685 128.194 79.84 131.499 80.7212C131.937 80.8256 132.041 80.388 131.603 80.2836C128.161 78.8146 124.601 78.6127 121.682 81.1541C120.99 81.7291 122.002 82.5257 122.544 82.1925Z" fill="#C9C9C9"/>
<path d="M110.816 95.6763C112.246 94.7224 113.147 93.2722 114.29 91.9722C115.583 90.4305 116.68 88.9345 117.731 87.2426C118.032 86.7592 117.261 86.1127 116.765 86.6418C115.863 88.092 114.675 89.1961 113.532 90.4962C112.389 91.7962 110.809 92.9918 109.908 94.442C109.457 95.1671 110.124 96.2513 110.816 95.6763Z" fill="#C9C9C9"/>
<path d="M100.983 112.85C104.189 110.655 106.742 106.546 108.649 103.208C108.904 102.528 108.179 102.078 107.682 102.607C106.435 104.345 104.992 106.128 103.503 107.716C102.36 109.016 100.976 110.165 100.074 111.616C99.6696 112.537 100.44 113.183 100.983 112.85Z" fill="#C9C9C9"/>
<path d="M85.237 124.173C88.8098 123.545 92.0164 121.35 94.877 119.442C95.419 119.109 95.0401 118.371 94.4522 118.508C91.35 120.265 88.1105 121.435 84.8252 122.409C83.8912 122.834 84.2573 124.401 85.237 124.173Z" fill="#C9C9C9"/>
<path d="M70.5985 120.772C71.8527 121.719 73.4989 122.575 74.9033 123.28C76.0661 123.835 76.9672 122.384 75.9546 121.588C74.7458 120.837 73.4919 119.89 72.2376 118.943C70.983 117.996 69.5918 116.462 67.9914 115.802C67.312 115.548 66.6655 116.318 67.0445 117.056C67.4106 118.624 69.1482 119.871 70.5985 120.772Z" fill="#C9C9C9"/>
<path d="M64.4052 111.061C64.5882 111.844 65.9595 111.524 65.7765 110.74C65.5148 108.735 65.4949 106.88 65.4295 104.829C65.4095 102.974 65.9774 100.982 65.5198 99.0223C65.291 98.0426 63.8279 97.971 63.6645 99.0423C62.6789 102.785 63.3856 107.579 64.4052 111.061Z" fill="#C9C9C9"/>
<path d="M68.2076 89.303C68.8674 87.7026 69.5264 86.1022 70.1862 84.5018C70.6493 82.9472 71.7006 81.2553 71.5308 79.6419C71.3478 78.8581 70.5182 78.8452 69.9762 79.1784C68.7418 80.0866 68.5658 81.9874 68.2526 83.3003C67.6389 85.0966 67.267 87.0432 66.6533 88.8395C66.4899 89.9108 67.8028 90.2241 68.2076 89.303Z" fill="#C9C9C9"/>
<path d="M74.6647 72.7111C76.0621 70.7318 77.0677 68.8439 77.8315 66.8059C78.5953 64.7678 79.568 61.8545 78.6728 59.7906C78.248 58.8567 77.2225 58.8895 76.8178 59.8106C76.1583 61.411 76.42 63.4162 76.1982 65.121C75.9636 67.6553 75.0953 70.131 73.9854 72.4565C73.6392 72.744 74.3643 73.1945 74.6647 72.7111Z" fill="#C9C9C9"/>
<path d="M81.3486 50.9005C82.746 48.9211 83.7058 46.8373 84.3781 44.4074C85.0504 41.9774 85.7813 38.9136 84.8403 36.6538C84.4613 35.9158 83.2857 36.1903 83.227 36.8239C82.4633 38.8623 83.0124 41.2136 82.6862 43.3561C82.4057 45.6942 81.5375 48.1702 80.4275 50.4957C80.1272 50.9791 80.898 51.6256 81.3486 50.9005Z" fill="#C9C9C9"/>
<path d="M74.5442 20.8756C76.0988 21.3387 77.4117 21.652 78.666 22.5988C80.0118 23.9376 80.9528 26.1974 81.3646 27.9609C81.5019 28.549 82.4817 28.3202 82.3443 27.7321C81.8668 23.9177 79.573 17.6349 74.5242 19.0202C73.7862 19.3992 73.6688 20.6664 74.5442 20.8756Z" fill="#C9C9C9"/>
<path d="M52.1732 18.8677C54.374 18.5603 56.4383 17.6653 58.5933 17.1621C61.3825 16.717 64.1129 16.9062 66.6344 17.9704C67.0719 18.0745 67.1306 17.4409 66.889 17.2911C62.042 15.1169 55.7187 13.7008 51.1275 17.0459C50.2854 17.8625 51.1935 19.0965 52.1732 18.8677Z" fill="#C9C9C9"/>
<path d="M38.6291 36.0814C39.8177 34.9773 40.7188 33.5271 42.0575 32.1813C43.2461 31.0772 44.7225 30.3191 46.2439 29.7572C47.1782 29.3324 46.8579 27.9608 45.8779 28.1897C42.3051 28.8174 38.073 31.0455 36.8914 34.8341C36.3361 35.997 37.741 36.7024 38.6291 36.0814Z" fill="#C9C9C9"/>
<path d="M33.3409 49.7144C35.2933 46.5723 37.3956 43.1885 38.4272 39.6415C38.7862 38.5242 37.2774 38.257 36.8726 39.178C35.3578 42.4246 32.2885 45.2077 31.4985 48.9049C31.5316 49.9299 32.7401 50.6809 33.3409 49.7144Z" fill="#C9C9C9"/>
<path d="M18.5991 52.9501C19.4615 53.9885 21.2121 54.4062 22.525 54.7195C24.0339 54.987 25.6471 54.8165 27.2147 54.4505C28.1944 54.2217 27.8742 52.8504 26.8944 53.0792C25.5228 53.3995 24.2556 53.2818 22.9426 52.9686C21.8253 52.6096 20.8128 51.8129 19.6962 51.4541C18.7752 51.0497 18.0245 52.2578 18.5991 52.9501Z" fill="#C9C9C9"/>
<path d="M5.05726 48.054C8.85293 51.9201 11.8062 56.6028 15.2557 60.7563C16.9347 62.6371 19.6122 59.9456 18.1291 58.019C15.4505 54.5123 12.922 50.7632 9.70124 47.5894C11.419 46.9816 13.1367 46.3738 15.0504 45.7203C15.7884 45.3413 17.16 45.021 17.5647 44.0996L17.7147 43.8583C17.7147 43.8583 17.9106 43.8126 17.8648 43.6166C18.1652 43.1332 17.5903 42.441 17.1984 42.5325C16.9567 42.3823 16.7604 42.4281 16.3689 42.5196C15.3431 42.5528 14.4094 42.9772 13.2338 43.2517C10.7323 44.0425 8.42678 44.7879 5.83368 45.1865C4.61258 45.2651 4.19488 47.0156 5.05726 48.054Z" fill="#C9C9C9"/>
</g>
<defs>
<clipPath id="clip0_94_1693">
<rect width="120.029" height="120.029" fill="white" transform="translate(144.18 116.884) rotate(166.855)"/>
</clipPath>
</defs>
</svg>
